<?xml version="1.0" encoding="iso-8859-1"?>
<!-- Generator: Adobe Illustrator 21.1.0, SVG Export Plug-In . SVG Version: 6.00 Build 0)  -->
<svg version="1.1" id="Layer_1" xmlns="http://www.w3.org/2000/svg" xmlns:xlink="http://www.w3.org/1999/xlink" x="0px" y="0px"
     viewBox="0 0 100.75 100.748" color="white" stroke="white" fill="white"
     style="enable-background:new 0 0 100.75 100.748;" xml:space="preserve">
<g>
	<path d="M25.509,62.417c0,0.828,0.671,1.5,1.5,1.5s1.5-0.672,1.5-1.5c0-5.049-4.571-9.221-10.457-9.836v-4.195
		c0-0.829-0.671-1.5-1.5-1.5s-1.5,0.671-1.5,1.5v4.195c-5.89,0.615-10.464,4.787-10.464,9.836c0,5.045,4.574,9.214,10.464,9.828
		V86.07c-4.229-0.552-7.464-3.396-7.464-6.821c0-0.828-0.671-1.5-1.5-1.5s-1.5,0.672-1.5,1.5c0,5.052,4.574,9.227,10.464,9.84v4.189
		c0,0.828,0.671,1.5,1.5,1.5s1.5-0.672,1.5-1.5v-4.191c5.886-0.618,10.457-4.79,10.457-9.838c0-5.045-4.57-9.213-10.457-9.83V55.599
		C22.278,56.153,25.509,58.995,25.509,62.417z M7.588,62.417c0-3.422,3.234-6.264,7.464-6.818v13.627
		C10.822,68.673,7.588,65.834,7.588,62.417z M25.509,79.248c0,3.422-3.231,6.264-7.457,6.82V72.437
		C22.278,72.992,25.509,75.831,25.509,79.248z"/>
    <path d="M90.336,59.534c-0.828,0-1.5,0.672-1.5,1.5v25.307H49.867l6.709-6.71c0.586-0.586,0.586-1.535,0-2.121
		s-1.535-0.586-2.121,0l-9.269,9.27c-0.139,0.139-0.25,0.306-0.327,0.492c-0.003,0.007-0.004,0.015-0.007,0.023
		c-0.067,0.17-0.107,0.354-0.107,0.547s0.04,0.377,0.107,0.547c0.003,0.008,0.004,0.015,0.007,0.023
		c0.076,0.185,0.187,0.352,0.327,0.492l9.269,9.271c0.293,0.293,0.677,0.439,1.061,0.439s0.768-0.146,1.061-0.439
		c0.586-0.586,0.586-1.535,0-2.121l-6.709-6.711h40.469c0.828,0,1.5-0.672,1.5-1.5V61.034
		C91.836,60.206,91.164,59.534,90.336,59.534z"/>
    <path d="M16.552,31.363c0.829,0,1.5-0.671,1.5-1.5V13.658H53.37l-6.71,6.71c-0.586,0.586-0.586,1.536,0,2.121
		c0.293,0.293,0.677,0.439,1.061,0.439s0.768-0.146,1.061-0.439l9.269-9.27c0.14-0.139,0.251-0.306,0.327-0.492
		c0.003-0.007,0.004-0.015,0.007-0.023c0.067-0.17,0.107-0.354,0.107-0.547s-0.04-0.377-0.107-0.547
		c-0.003-0.007-0.004-0.015-0.007-0.023c-0.076-0.185-0.187-0.352-0.327-0.492l-9.269-9.27c-0.586-0.586-1.535-0.586-2.121,0
		c-0.586,0.585-0.586,1.535,0,2.121l6.71,6.71H16.552c-0.829,0-1.5,0.671-1.5,1.5v17.705C15.052,30.691,15.723,31.363,16.552,31.363
		z"/>
    <path d="M95.132,39.968c-0.482-0.673-1.421-0.826-2.094-0.344c-2.356,1.692-5.176,2.586-8.153,2.586
		c-5.477,0-10.191-3.094-12.28-7.513h14.338c0.828,0,1.5-0.671,1.5-1.5s-0.672-1.5-1.5-1.5H71.653
		c-0.121-0.679-0.199-1.371-0.199-2.082c0-0.711,0.078-1.403,0.199-2.082h15.291c0.828,0,1.5-0.671,1.5-1.5s-0.672-1.5-1.5-1.5
		H72.605c2.088-4.419,6.802-7.513,12.28-7.513c2.858,0,5.587,0.831,7.89,2.401c0.685,0.466,1.618,0.291,2.085-0.394
		s0.29-1.618-0.394-2.084c-2.804-1.912-6.117-2.923-9.581-2.923c-7.184,0-13.29,4.405-15.518,10.513h-5.564
		c-0.828,0-1.5,0.671-1.5,1.5s0.672,1.5,1.5,1.5h4.814c-0.097,0.683-0.164,1.374-0.164,2.082c0,0.708,0.067,1.399,0.164,2.082
		h-4.814c-0.828,0-1.5,0.671-1.5,1.5s0.672,1.5,1.5,1.5h5.564c2.228,6.108,8.334,10.513,15.518,10.513
		c3.608,0,7.033-1.089,9.903-3.148C95.461,41.578,95.614,40.641,95.132,39.968z"/>
</g>
</svg>
